<svg xmlns="http://www.w3.org/2000/svg">
    <symbol id="home" viewBox="0 -960 960 960">
        <path
            d="M240-200h120v-240h240v240h120v-360L480-740 240-560v360Zm-80 80v-480l320-240 320 240v480H520v-240h-80v240H160Zm320-350Z"
            fill="currentColor" />
    </symbol>
    <symbol id="clock" viewBox="0 -960 960 960">
        <path
            d="m612-292 56-56-148-148v-184h-80v216l172 172ZM480-80q-83 0-156-31.5T197-197q-54-54-85.5-127T80-480q0-83 31.5-156T197-763q54-54 127-85.5T480-880q83 0 156 31.5T763-763q54 54 85.5 127T880-480q0 83-31.5 156T763-197q-54 54-127 85.5T480-80Zm0-400Zm0 320q133 0 226.5-93.5T800-480q0-133-93.5-226.5T480-800q-133 0-226.5 93.5T160-480q0 133 93.5 226.5T480-160Z"
            fill="currentColor" />
    </symbol>
    <symbol id="users" viewBox="0 -960 960 960">
        <path
            d="M0-240v-63q0-43 44-70t116-27q13 0 25 .5t23 2.5q-14 21-21 44t-7 48v65H0Zm240 0v-65q0-32 17.5-58.5T307-410q32-20 76.5-30t96.5-10q53 0 97.5 10t76.5 30q32 20 49 46.5t17 58.5v65H240Zm540 0v-65q0-26-6.5-49T754-397q11-2 22.5-2.5t23.5-.5q72 0 116 26.5t44 70.5v63H780Zm-455-80h311q-10-20-55.5-35T480-370q-55 0-100.5 15T325-320ZM160-440q-33 0-56.5-23.5T80-520q0-34 23.5-57t56.5-23q34 0 57 23t23 57q0 33-23 56.5T160-440Zm640 0q-33 0-56.5-23.5T720-520q0-34 23.5-57t56.5-23q34 0 57 23t23 57q0 33-23 56.5T800-440Zm-320-40q-50 0-85-35t-35-85q0-51 35-85.5t85-34.5q51 0 85.5 34.5T600-600q0 50-34.5 85T480-480Zm0-80q17 0 28.5-11.5T520-600q0-17-11.5-28.5T480-640q-17 0-28.5 11.5T440-600q0 17 11.5 28.5T480-560Zm1 240Zm-1-280Z"
            fill="currentColor" />
    </symbol>
    <symbol id="account" viewBox="0 -960 960 960">
        <path
            d="M234-276q51-39 114-61.5T480-360q69 0 132 22.5T726-276q35-41 54.5-93T800-480q0-133-93.5-226.5T480-800q-133 0-226.5 93.5T160-480q0 59 19.5 111t54.5 93Zm246-164q-59 0-99.5-40.5T340-580q0-59 40.5-99.5T480-720q59 0 99.5 40.5T620-580q0 59-40.5 99.5T480-440Zm0 360q-83 0-156-31.5T197-197q-54-54-85.5-127T80-480q0-83 31.5-156T197-763q54-54 127-85.5T480-880q83 0 156 31.5T763-763q54 54 85.5 127T880-480q0 83-31.5 156T763-197q-54 54-127 85.5T480-80Zm0-80q53 0 100-15.5t86-44.5q-39-29-86-44.5T480-280q-53 0-100 15.5T294-220q39 29 86 44.5T480-160Zm0-360q26 0 43-17t17-43q0-26-17-43t-43-17q-26 0-43 17t-17 43q0 26 17 43t43 17Zm0-60Zm0 360Z"
            fill="currentColor" />
    </symbol>
    <symbol id="calendar-add" viewBox="0 -960 960 960">
        <path
            d="M680-80v-120H560v-80h120v-120h80v120h120v80H760v120h-80Zm-480-80q-33 0-56.5-23.5T120-240v-480q0-33 23.5-56.5T200-800h40v-80h80v80h240v-80h80v80h40q33 0 56.5 23.5T760-720v244q-20-3-40-3t-40 3v-84H200v320h280q0 20 3 40t11 40H200Zm0-480h480v-80H200v80Zm0 0v-80 80Z"
            fill="currentColor" />
    </symbol>
    <symbol id="calendar-check" viewBox="0 -960 960 960">
        <path
            d="M200-80q-33 0-56.5-23.5T120-160v-560q0-33 23.5-56.5T200-800h40v-80h80v80h320v-80h80v80h40q33 0 56.5 23.5T840-720v255l-80 80v-175H200v400h248l80 80H200Zm0-560h560v-80H200v80Zm0 0v-80 80ZM662-60 520-202l56-56 85 85 170-170 56 57L662-60Z"
            fill="currentColor" />
    </symbol>
    <symbol id="check" viewBox="0 -960 960 960">
        <path d="M382-240 154-468l57-57 171 171 367-367 57 57-424 424Z"
            fill="currentColor" />
    </symbol>
    <symbol id="edit" viewBox="0 -960 960 960">
        <path
            d="M200-200h57l391-391-57-57-391 391v57Zm-80 80v-170l528-527q12-11 26.5-17t30.5-6q16 0 31 6t26 18l55 56q12 11 17.5 26t5.5 30q0 16-5.5 30.5T817-647L290-120H120Zm640-584-56-56 56 56Zm-141 85-28-29 57 57-29-28Z"
            fill="currentColor" />
    </symbol>
    <symbol id="refresh" viewBox="0 -960 960 960">
        <path
            d="M480-160q-134 0-227-93t-93-227q0-134 93-227t227-93q69 0 132 28.5T720-690v-110h80v280H520v-80h168q-32-56-87.5-88T480-720q-100 0-170 70t-70 170q0 100 70 170t170 70q77 0 139-44t87-116h84q-28 106-114 173t-196 67Z"
            fill="currentColor" />
    </symbol>
    <symbol id="close" viewBox="0 -960 960 960">
        <path
            d="m256-200-56-56 224-224-224-224 56-56 224 224 224-224 56 56-224 224 224 224-56 56-224-224-224 224Z"
            fill="currentColor" />
    </symbol>
</svg>